<?xml version="1.0" encoding="utf-8"?>
<!-- Generator: Adobe Illustrator 17.0.0, SVG Export Plug-In . SVG Version: 6.00 Build 0)  -->
<!DOCTYPE svg PUBLIC "-//W3C//DTD SVG 1.1//EN" "http://www.w3.org/Graphics/SVG/1.1/DTD/svg11.dtd">
<svg version="1.1" id="Layer_1" xmlns="http://www.w3.org/2000/svg" xmlns:xlink="http://www.w3.org/1999/xlink" x="0px" y="0px"
	 width="60px" height="60px" viewBox="0 0 60 60" enable-background="new 0 0 60 60" xml:space="preserve">
<g>
	<path fill="#FF906B" d="M39.951,28.798l0.085-0.085l11.676-11.676c0.659-0.659,1.023-1.536,1.022-2.469
		c0-0.931-0.364-1.807-1.023-2.465L47.897,8.29c-0.659-0.659-1.534-1.023-2.465-1.023c-0.933,0-1.808,0.363-2.468,1.023
		l-11.76,11.761l-0.085-0.085L18.739,7.585c-0.205-0.205-0.477-0.317-0.766-0.317c-0.289,0-0.56,0.112-0.766,0.317l-9.623,9.622
		c-0.205,0.205-0.317,0.477-0.317,0.766s0.112,0.561,0.317,0.766l12.466,12.465l-0.085,0.085l-7.569,7.569l-0.251,0.385
		L7.346,51.249c-0.135,0.34-0.097,0.706,0.105,1.004c0.284,0.419,0.82,0.594,1.302,0.403l12.028-4.811l0.383-0.255l7.635-7.64
		l0.085,0.085l12.381,12.381c0.411,0.409,1.121,0.409,1.531,0l9.622-9.622c0.205-0.205,0.317-0.477,0.317-0.766
		c0-0.289-0.112-0.56-0.317-0.766L39.951,28.798z M41.24,13.077l3.256-3.256c0.25-0.25,0.582-0.388,0.936-0.388
		c0.352,0,0.684,0.138,0.933,0.387l3.816,3.817c0.25,0.249,0.388,0.581,0.388,0.935s-0.138,0.685-0.388,0.936l-3.341,3.341
		l-0.085-0.085l-5.601-5.601L41.24,13.077z M9.882,17.973l0.085-0.085l8.006-8.006l0.085,0.085l3.196,3.195l-0.085,0.085
		l-3.961,3.961c-0.33,0.33-0.424,0.748-0.259,1.147c0.176,0.426,0.602,0.723,1.035,0.723c0.271,0,0.533-0.117,0.756-0.339
		l4.045-4.046l0.085,0.085l3.196,3.195l-1.641,1.64c-0.33,0.33-0.424,0.748-0.259,1.147c0.176,0.426,0.602,0.723,1.035,0.723
		c0.271,0,0.533-0.117,0.756-0.339l1.639-1.64l2.078,2.078l-0.085,0.085l-8.006,8.006l-0.085-0.085L9.882,17.973z M18.284,46.512
		l-7.99,3.196l3.265-8.158l0.128,0.129l4.766,4.765L18.284,46.512z M20.379,45.309l-0.085-0.085l-5.601-5.6l0.085-0.085
		l24.845-24.846l0.085,0.085l5.601,5.601l-0.085,0.085L20.379,45.309z M50.035,42.113l-8.006,8.007l-0.085-0.085L30.329,38.42
		l0.085-0.085l8.006-8.007l2.078,2.078l-0.085,0.085l-3.961,3.961c-0.33,0.33-0.424,0.748-0.259,1.147
		c0.176,0.427,0.602,0.723,1.035,0.723c0.272,0,0.533-0.117,0.756-0.338l4.045-4.046l0.085,0.085l3.196,3.195l-0.085,0.085
		l-1.555,1.555c-0.33,0.33-0.424,0.748-0.259,1.147c0.176,0.427,0.602,0.723,1.035,0.723c0.272,0,0.533-0.117,0.756-0.338
		l1.639-1.641l0.085,0.085l3.196,3.195L50.035,42.113z"/>
</g>
</svg>
