<?xml version="1.0" encoding="utf-8"?>
<!-- Generator: Adobe Illustrator 17.0.0, SVG Export Plug-In . SVG Version: 6.00 Build 0)  -->
<!DOCTYPE svg PUBLIC "-//W3C//DTD SVG 1.1//EN" "http://www.w3.org/Graphics/SVG/1.1/DTD/svg11.dtd">
<svg version="1.1" id="Layer_1" xmlns="http://www.w3.org/2000/svg" xmlns:xlink="http://www.w3.org/1999/xlink" x="0px" y="0px"
	 width="60px" height="60px" viewBox="0 0 60 60" enable-background="new 0 0 60 60" xml:space="preserve">
<g>
	<path fill="#FF906B" d="M52.802,5.836H7.199C5.123,5.838,3.441,7.522,3.441,9.598v32.796c0.003,2.074,1.684,3.755,3.758,3.758
		h15.432l-1.313,5.929H18.96c-0.575,0-1.042,0.467-1.042,1.042c0,0.575,0.467,1.042,1.042,1.042H41.04
		c0.575,0,1.042-0.467,1.042-1.042c0-0.575-0.467-1.042-1.042-1.042h-2.359l-1.313-5.92h15.432c2.077-0.003,3.76-1.689,3.758-3.766
		V9.598C56.56,7.522,54.878,5.838,52.802,5.836z M23.453,52.081l1.313-5.92h10.47l1.313,5.92H23.453z M54.476,42.394
		c0.001,0.926-0.748,1.677-1.674,1.679v0.004H7.199c-0.926-0.001-1.676-0.753-1.674-1.679c0-0.001,0-0.003,0-0.004v-3.297h48.953
		L54.476,42.394L54.476,42.394z M54.476,9.598v27.417H5.525V9.598C5.523,8.673,6.272,7.921,7.197,7.919c0.001,0,0.001,0,0.002,0
		h45.603c0.925,0.001,1.675,0.751,1.674,1.677V9.598z"/>
	<path fill="#FF906B" d="M32.099,12.763c-0.467-0.125-0.948,0.152-1.073,0.619l-4.815,17.969c-0.125,0.467,0.153,0.947,0.62,1.072
		c0.467,0.126,0.948-0.152,1.074-0.619l4.814-17.968C32.845,13.369,32.567,12.889,32.099,12.763z"/>
	<path fill="#FF906B" d="M36.755,14.716c-0.395-0.454-1.052-0.454-1.449,0c-0.377,0.431-0.377,1.117,0,1.548l5.527,6.329
		l-5.527,6.329c-0.377,0.431-0.377,1.117,0,1.548c0.397,0.454,1.054,0.454,1.449,0l6.203-7.102c0.378-0.431,0.378-1.117,0-1.548
		L36.755,14.716z"/>
	<path fill="#FF906B" d="M24.881,14.716c-0.396-0.454-1.053-0.454-1.449,0l-6.203,7.102c-0.377,0.431-0.377,1.117,0,1.548
		l6.203,7.102c0.396,0.454,1.053,0.454,1.449,0c0.377-0.431,0.377-1.117,0-1.548l-5.527-6.329l5.527-6.329
		C25.257,15.833,25.257,15.148,24.881,14.716z"/>
</g>
</svg>
