<?xml version="1.0" encoding="utf-8"?>
<!-- Generator: Adobe Illustrator 17.0.0, SVG Export Plug-In . SVG Version: 6.00 Build 0)  -->
<!DOCTYPE svg PUBLIC "-//W3C//DTD SVG 1.1//EN" "http://www.w3.org/Graphics/SVG/1.1/DTD/svg11.dtd">
<svg version="1.1" id="Layer_1" xmlns="http://www.w3.org/2000/svg" xmlns:xlink="http://www.w3.org/1999/xlink" x="0px" y="0px"
	 width="60px" height="60px" viewBox="0 0 60 60" enable-background="new 0 0 60 60" xml:space="preserve">
<g>
	<path fill="#FF906B" d="M56.561,31.066h-2.32c-0.214-1.329-0.819-2.609-1.755-3.712C52.303,15.356,44.701,5.602,35.524,5.602
		H24.478c-9.182,0-16.779,9.748-16.954,21.741c-0.932,1.088-1.538,2.368-1.755,3.712H3.441c-0.636,0-1.153,0.517-1.153,1.153v7.019
		c0,0.636,0.517,1.152,1.153,1.152H5.66v5.857c0,4.501,4.194,8.162,9.349,8.162h4.437c1.855,0,3.592-0.997,4.536-2.604
		c1.266-2.161,3.517-3.453,6.019-3.453s4.751,1.291,6.016,3.451c0.936,1.608,2.674,2.605,4.537,2.605h4.437
		c5.155,0,9.349-3.661,9.349-8.162v-5.857h2.22c0.636,0,1.152-0.516,1.152-1.152v-7.009C57.712,31.583,57.196,31.066,56.561,31.066z
		 M55.409,33.37v4.705h-1.068V33.37H55.409z M13.569,23.355c0.467-1.056,1.524-1.738,2.69-1.738h27.482
		c1.16,0,2.217,0.682,2.691,1.737l0.374,0.854c-0.602-0.107-1.214-0.161-1.825-0.161H15.009c-0.61,0-1.221,0.054-1.822,0.161
		L13.569,23.355z M49.794,25.209l-1.253-2.798c-0.839-1.889-2.718-3.109-4.79-3.109H16.269c-2.07,0-3.95,1.22-4.788,3.109
		l-1.254,2.797c-0.1,0.05-0.199,0.104-0.298,0.159c0.887-9.971,7.111-17.46,14.548-17.46h11.046c7.434,0,13.661,7.488,14.556,17.459
		C49.983,25.313,49.887,25.26,49.794,25.209z M52.036,46.347c-0.072,3.18-3.205,5.747-7.045,5.747h-4.437
		c-1.038,0-2.013-0.561-2.544-1.465c-1.681-2.876-4.675-4.592-8.01-4.592c-3.335,0-6.329,1.716-8.011,4.592
		c-0.53,0.902-1.504,1.463-2.544,1.463h-4.437c-3.885,0-7.046-2.627-7.046-5.857V32.219c0-3.229,3.161-5.857,7.046-5.857h29.973
		c3.885,0,7.046,2.627,7.046,5.857v14.017L52.036,46.347z M5.659,33.37v4.705H4.592V33.37H5.659z"/>
</g>
</svg>
